<svg xmlns="http://www.w3.org/2000/svg" width="30" height="30">
  <g data-name="Group 5">
    <path fill="none" d="M15 .556A14.445 14.445 0 0 1 29.445 15 14.445 14.445 0 0 1 15 29.445 14.445 14.445 0 0 1 .556 15 14.445 14.445 0 0 1 15 .556z" data-name="Path 21"/>
    <path fill="#fff" d="M15 30a15 15 0 1 1 15-15 15.017 15.017 0 0 1-15 15zm0-28.889A13.889 13.889 0 1 0 28.889 15 13.9 13.9 0 0 0 15 1.111z" data-name="Path 22"/>
  </g>
  <path fill="#fff" d="M17.614 22.222a.554.554 0 0 1-.393-.163l-6.388-6.388a.951.951 0 0 1 0-1.343l6.388-6.388a.556.556 0 0 1 .786.786L11.733 15l6.274 6.278a.556.556 0 0 1-.393.948z" data-name="Path 23"/>
</svg>
