<svg xmlns="http://www.w3.org/2000/svg" width="40" height="40">
  <path fill="#fff" d="M23.828 20A3.828 3.828 0 1 1 20 16.172 3.828 3.828 0 0 1 23.828 20zm0 0" data-name="Path 24"/>
  <path fill="#fff" d="M28.952 13.227a3.8 3.8 0 0 0-2.18-2.18 6.354 6.354 0 0 0-2.132-.4c-1.211-.055-1.574-.067-4.641-.067s-3.43.012-4.641.067a6.358 6.358 0 0 0-2.132.4 3.8 3.8 0 0 0-2.18 2.18 6.356 6.356 0 0 0-.4 2.133c-.055 1.211-.067 1.574-.067 4.641s.012 3.43.067 4.641a6.354 6.354 0 0 0 .4 2.132 3.8 3.8 0 0 0 2.18 2.18 6.346 6.346 0 0 0 2.133.4c1.211.055 1.574.067 4.641.067s3.43-.012 4.641-.067a6.346 6.346 0 0 0 2.133-.4 3.8 3.8 0 0 0 2.18-2.18 6.36 6.36 0 0 0 .4-2.132c.055-1.211.067-1.574.067-4.641s-.012-3.43-.067-4.641a6.346 6.346 0 0 0-.402-2.133zM20 25.897a5.9 5.9 0 1 1 5.9-5.9 5.9 5.9 0 0 1-5.9 5.9zm6.13-10.649a1.378 1.378 0 1 1 1.378-1.378 1.378 1.378 0 0 1-1.378 1.378zm0 0" data-name="Path 25"/>
  <path fill="#fff" d="M20 0a20 20 0 1 0 20 20A20 20 0 0 0 20 0zm11.415 24.735a8.426 8.426 0 0 1-.534 2.788 5.872 5.872 0 0 1-3.359 3.359 8.432 8.432 0 0 1-2.787.534c-1.225.056-1.616.069-4.735.069s-3.51-.013-4.735-.069a8.432 8.432 0 0 1-2.787-.534 5.872 5.872 0 0 1-3.359-3.359 8.424 8.424 0 0 1-.534-2.787c-.056-1.225-.07-1.616-.07-4.735s.013-3.51.069-4.735a8.427 8.427 0 0 1 .533-2.788 5.876 5.876 0 0 1 3.359-3.359 8.434 8.434 0 0 1 2.788-.534c1.225-.056 1.616-.069 4.735-.069s3.51.013 4.735.07a8.435 8.435 0 0 1 2.788.533 5.874 5.874 0 0 1 3.359 3.359 8.425 8.425 0 0 1 .534 2.788c.056 1.225.069 1.616.069 4.735s-.013 3.509-.069 4.734zm0 0" data-name="Path 26"/>
</svg>
