<svg xmlns="http://www.w3.org/2000/svg" width="30" height="30">
  <g fill="#3ed507" data-name="Group 5">
    <path d="M15 29.444A14.445 14.445 0 0 1 .555 15 14.445 14.445 0 0 1 15 .555 14.445 14.445 0 0 1 29.444 15 14.445 14.445 0 0 1 15 29.444z" data-name="Path 21"/>
    <path d="M15 0A15 15 0 1 1 0 15 15.017 15.017 0 0 1 15 0zm0 28.889A13.889 13.889 0 1 0 1.111 15 13.9 13.9 0 0 0 15 28.889z" data-name="Path 22"/>
  </g>
  <path fill="#fff" d="M12.386 7.778a.554.554 0 0 1 .393.163l6.388 6.388a.951.951 0 0 1 0 1.343l-6.388 6.388a.556.556 0 0 1-.786-.786L18.267 15l-6.274-6.278a.556.556 0 0 1 .393-.948z" data-name="Path 23"/>
</svg>
