<svg xmlns="http://www.w3.org/2000/svg" width="17.515" height="15.986">
  <path fill="#3ed507" fill-rule="evenodd" d="M5.255 5.661l-.677-2.07h3.237a.623.623 0 0 0 0-1.246H4.172L3.546.43A.622.622 0 0 0 2.955 0H.622a.623.623 0 0 0 0 1.245h1.883l3.346 10.246a2.269 2.269 0 1 0 2.485 1.2h4.324a2.27 2.27 0 1 0 3.63-.578 2.292 2.292 0 0 0-1.607-.668h-7.54l-.359-1.1h7.9a.622.622 0 0 0 .591-.43l2.197-6.717a.623.623 0 0 0-.578-.854h-4.097a.623.623 0 0 0 0 1.246h3.237l-.676 2.071zm9.7 1.245h-9.29l.717 2.2h7.856zm-4.649-4.562a.623.623 0 1 0 .623.623.623.623 0 0 0-.623-.623zm4.422 10.347a1.021 1.021 0 1 1-.114 0 .744.744 0 0 1 .114 0zm-7.693.3a1.024 1.024 0 1 1-.724-.3 1.021 1.021 0 0 1 .723.3z"/>
</svg>
