<svg xmlns="http://www.w3.org/2000/svg" width="80" height="72.623">
  <g fill="#fff">
    <path d="M32.536 19.268a4.753 4.753 0 0 0 .52.858c5.338-1.5 15.034.262 15.182 1.876.208 2.4-5.249 3.622-8.684 3.622-4.1 0-7.524-.785-7.391-2.153.208-2.124 13.4-1.818 13.636-1 .371 1.353-5.323 1.455-9.547-.1a14.117 14.117 0 0 0-2.528.407 12.416 12.416 0 0 0 7.554 1.789c3.658-.276 5.041-1.469 4.922-2.211-.163-.945-2.528-1.629-6.26-1.6-.892 0-8.386.262-8.4 2.676s4.609 3.782 8.089 3.782c4.848 0 9.517-2.066 9.249-5.324-.253-3.174-10.573-4.862-16.342-2.622zm12.8-2.342c.877.305 2.067-.669 1.531-2.138-.535-1.425-4.684-8.131-1.873-9.353 1.041-.436.565 1.746-.282 3.418a12.847 12.847 0 0 0 .52 1.367c.164-.247.312-.495.446-.727 1.324-2.3 1.309-4.349-.134-4.451-1.546-.131-2.334 1.92-1.859 4.058.762 3.405 2.531 7.358 1.654 7.826zm-7.747-.393a4.139 4.139 0 0 0 .624-3.069 41.1 41.1 0 0 0-1.115 1.265c.03 1.382-.371 2.269-.922 1.978-1.561-.844 3.435-5.135 3.97-5.658l.089-.087a8.778 8.778 0 0 1-.743-1.44c-.521.582-3.777 3.331-4.164 6.066-.205 1.542 1.223 2.313 2.268.946zm6.052-6.095c-.4.48-3.9 3.564-3.539 5.6.313 1.789 2.439 1.455 2.855 0a4.125 4.125 0 0 0-.03-2.124 5.593 5.593 0 0 0-.417.655c.417 1.382-.461 2.575-.952 2.226-1.011-.727 2.067-4.306 2.483-4.873-.145-.479-.264-.964-.398-1.483zM41.47 12.3a8.025 8.025 0 0 1 .684-.727c-.268-.655-2.275-4.2-2.216-6.735.045-1.571 2.1-1.178 1.858.8a5.063 5.063 0 0 1-.877 2.095c.178.553.461 1.178.565 1.5 1.4-2.633 1.309-5.906-.922-5.76-1.383.1-1.948 2.007-1.264 4.407a18.718 18.718 0 0 0 2.174 4.421zm6.617 22.5c-1.175.655-.268 2.3.535 2.4.4-1.978 9.2.044 4.536 2.007-6.6 2.749-15.272 2.618-21.591 1.367-3.405-.669-7.36-2.967-4.03-4.742a24.6 24.6 0 0 1 3.717-1.556c-.193-.276-.476-.684-.624-.96a17.811 17.811 0 0 0-5.487 3.215c-4.431 4.276 7.42 6.633 13.413 6.6 5.219-.044 12.179-1.135 15.227-3.316 4.805-3.426-4.296-5.783-5.693-5.012zM37.619 10.9c-.282-.858-1.918-4.713-2.335-6.022-2.245-6.851 3.093-5.382.8 1.178.134.422.595 1.44.7 1.658a10.5 10.5 0 0 0 .669-4.815c-.282-2.938-3.063-4.131-3.39-1.265-.357 3.127 2.468 9.818 2.617 10.371.287-.347.716-.839.941-1.101zm13.085 11.506c-1.517 1.469-2.632 3.942-3.554 6.284.981-.247 1.859-.451 2.721-.713 1.294-3.389 2.334-6.182 4.476-6.4 2.542-.247 2.825 2.895 1.412 4.349-2.9 2.938-16.446 4.437-22.677 6.473a6.385 6.385 0 0 0 .773 1.091c3.732-.96 7.747-1.469 11.821-2.24 6.275-1.178 10.513-2.938 11.421-5.891 1.431-4.723-3.52-5.701-6.39-2.949zm-18.23-.684a6.945 6.945 0 0 1 1.472-.48c-2.409-1.091-2.394-4.146-1.576-5.644 1.041-1.876 2.246-3.622 3.242-5.411a79.928 79.928 0 0 1-.595-1.731c-1.338 2.5-3.093 4.815-3.822 7.9a5.268 5.268 0 0 0 1.281 5.371zm6.87 17.193c5.175 0 7.524-3.695 9.264-7.8-1 .218-2.067.422-2.587.509-.1.262-.149.364-.253.625-1.547 3.724-3.852 5.135-6.216 5.135-2.32 0-4.387-1.338-6.558-4.349-2.216-3.084-4.03-9.658-2.751-11.288a3.73 3.73 0 0 1 1.085-.916 2.876 2.876 0 0 1-.357-.785 4.311 4.311 0 0 0-2.126 2.72c-.669 2.589.625 8.175 2.513 10.939s4.776 5.215 7.988 5.215z" data-name="Path 1"/>
    <g data-name="Group 1">
      <path d="M11.97 64.215l-3.524.975-4.223-3.228 1.19 4.073-2.691.742L0 57.407l2.691-.742 1.145 3.942 1.918-4.8 3.406-.945-2.483 5.585 5.279 3.768V64.2z" data-name="Path 2"/>
      <path d="M20.134 53.961a4.919 4.919 0 0 1 2.2 3.375 4.811 4.811 0 0 1-.877 3.9 5.355 5.355 0 0 1-3.569 2.109 5.482 5.482 0 0 1-4.074-.785 4.876 4.876 0 0 1-2.2-3.36 4.8 4.8 0 0 1 .877-3.884 5.374 5.374 0 0 1 3.554-2.124v-.014a5.517 5.517 0 0 1 4.089.783zm-1.026 5.76a2.607 2.607 0 0 0-.655-3.549 2.521 2.521 0 0 0-1.933-.377 2.408 2.408 0 0 0-1.666 1.018 2.438 2.438 0 0 0-.4 1.877 2.529 2.529 0 0 0 1.026 1.644 2.464 2.464 0 0 0 1.933.393 2.506 2.506 0 0 0 1.695-1.006z" data-name="Path 3"/>
      <path d="M32.015 60.535l.09 1.208-2.8.175-.089-1.207a5.448 5.448 0 0 1-3.346-1.062 3.731 3.731 0 0 1-.372-5.5 5.348 5.348 0 0 1 3.182-1.469l-.06-1.018 2.8-.189.059 1.033a5.4 5.4 0 0 1 3.361 1.063 3.75 3.75 0 0 1 .387 5.5 5.577 5.577 0 0 1-3.2 1.484zm-2.929-2.036l-.253-3.665a2.047 2.047 0 0 0-1.279.669 1.7 1.7 0 0 0-.416 1.28 1.775 1.775 0 0 0 .58 1.221 2.037 2.037 0 0 0 1.353.495v-.015zm2.78-.174a2.166 2.166 0 0 0 1.294-.67 1.752 1.752 0 0 0 .4-1.28 1.673 1.673 0 0 0-.565-1.207 2.043 2.043 0 0 0-1.368-.51z" data-name="Path 4"/>
      <path d="M38.646 61.248l.178-9.746 6.231.116-.03 2.313-3.465-.073-.029 1.411 3.286.058-.044 2.269-3.272-.058-.029 1.454 3.6.059-.044 2.313v-.015z" data-name="Path 5"/>
      <path d="M55.717 61.888a7.96 7.96 0 0 1-3.138.335 5.463 5.463 0 0 1-3.821-1.848 5.175 5.175 0 0 1 1.948-8.029 5.54 5.54 0 0 1 2.8-.421 7.83 7.83 0 0 1 3.093.931l-.282 2.822a5.889 5.889 0 0 0-2.915-1.135 2.565 2.565 0 0 0-1.933.539 2.378 2.378 0 0 0-.922 1.745 2.417 2.417 0 0 0 .55 1.862 2.663 2.663 0 0 0 1.888.887 6.408 6.408 0 0 0 3.034-.539l-.268 2.822v-.015z" data-name="Path 6"/>
      <path d="M67.628 64.376l-3.6-.7-2.26-4.742-.833 4.146-2.751-.538 1.934-9.557 2.751.538-.818 4.03 3.941-3.433 3.479.669-4.8 3.869 2.945 5.7z" data-name="Path 7"/>
      <path d="M79.433 58.964a4.825 4.825 0 0 1 .254 3.986 4.915 4.915 0 0 1-2.692 3 5.557 5.557 0 0 1-4.164.16 5.386 5.386 0 0 1-3.182-2.633 4.8 4.8 0 0 1-.268-3.971 4.9 4.9 0 0 1 2.706-2.982 5.384 5.384 0 0 1 4.15-.174v-.015a5.323 5.323 0 0 1 3.196 2.629zm-3.746 4.539a2.438 2.438 0 0 0 1.278-1.484 2.38 2.38 0 0 0-.089-1.92 2.663 2.663 0 0 0-3.464-1.149 2.418 2.418 0 0 0-1.279 1.455 2.459 2.459 0 0 0 .074 1.92 2.409 2.409 0 0 0 1.5 1.266 2.581 2.581 0 0 0 1.981-.088z" data-name="Path 8"/>
    </g>
    <g data-name="Group 2">
      <path d="M19.108 69.975h.417a2.456 2.456 0 0 1 .461-.654 1.367 1.367 0 0 1 .818-.451.322.322 0 0 1 .327.32.216.216 0 0 1-.223.218.159.159 0 0 1-.163-.146.2.2 0 0 1 .089-.146.054.054 0 0 0 .06-.058c0-.028 0-.087-.1-.087-.268 0-.505.321-.625.524a3.879 3.879 0 0 0-.327.712 2.418 2.418 0 0 0-.119.626c0 .262.119.348.253.348a.553.553 0 0 0 .357-.189 1.1 1.1 0 0 0 .253-.333c.015-.028.044-.088.074-.088.015 0 .03 0 .03.045a.715.715 0 0 1-.089.189.943.943 0 0 1-.729.479.7.7 0 0 1-.417-.146.538.538 0 0 1-.134-.378 2 2 0 0 1 .164-.683h-.431l-.446 1.076c-.015.043-.03.088-.1.088h-.045a.4.4 0 0 0-.119.014c-.03 0-.044.013-.074.013a.053.053 0 0 1-.059-.057.248.248 0 0 1 .03-.074c.015-.027.015-.057.03-.071l.4-.989h-.417a2.6 2.6 0 0 1-.536.785 1.484 1.484 0 0 1-.818.421.325.325 0 0 1-.357-.318.221.221 0 0 1 .238-.233.154.154 0 0 1 .164.16.152.152 0 0 1-.089.146c-.03.014-.074.014-.074.074 0 .027.015.071.134.071.149 0 .371-.071.639-.523a4.71 4.71 0 0 0 .327-.684 2.552 2.552 0 0 0 .134-.668c0-.19-.075-.335-.253-.335a.534.534 0 0 0-.327.161 1.564 1.564 0 0 0-.238.364c-.03.058-.059.073-.074.073s-.03-.015-.03-.044 0-.057.074-.188a.913.913 0 0 1 .208-.263.729.729 0 0 1 .505-.2.538.538 0 0 1 .4.146.524.524 0 0 1 .134.393 1.5 1.5 0 0 1-.119.567h.416l.387-.917a.279.279 0 0 1 .059-.131c.044-.014.1.015.134.015a.658.658 0 0 0 .163-.029c.015 0 .03-.014.045-.014s.044.014.044.042c0 .044-.044.089-.074.161z" data-name="Path 9"/>
      <path d="M24.432 68.987c.03-.058.03-.087.074-.087a.164.164 0 0 1 .074.015h.089a.382.382 0 0 0 .178-.029c.015 0 .06-.03.06.029 0 .014 0 .029-.045.1l-.714 1.615c-.03.058-.045.1-.074.16a.836.836 0 0 0-.03.205c0 .13.089.145.134.145a.41.41 0 0 0 .282-.131.776.776 0 0 0 .149-.16.221.221 0 0 1 .045-.059h.015c.015 0 .03 0 .03.016a.457.457 0 0 1-.119.189.768.768 0 0 1-.565.26c-.282 0-.4-.159-.4-.305a.489.489 0 0 1 .015-.1.113.113 0 0 1 .03-.074 2.028 2.028 0 0 1-.3.321.8.8 0 0 1-.521.173.623.623 0 0 1-.4-.13.611.611 0 0 1-.238-.509 1.661 1.661 0 0 1 .342-.887 2.99 2.99 0 0 1 .416-.451 1.309 1.309 0 0 1 .877-.407.521.521 0 0 1 .267.059.436.436 0 0 1 .194.32zm-.282.6a.8.8 0 0 0 .074-.232.462.462 0 0 0-.06-.188.355.355 0 0 0-.327-.175.493.493 0 0 0-.387.189.946.946 0 0 0-.119.131 4 4 0 0 0-.417.654 1.8 1.8 0 0 0-.238.814.581.581 0 0 0 .044.22.281.281 0 0 0 .268.145.464.464 0 0 0 .193-.043 1.041 1.041 0 0 0 .149-.1 1.551 1.551 0 0 0 .386-.51z" data-name="Path 10"/>
      <path d="M25.917 72.448c.045 0 .223.014.327.028.03 0 .075.015.075.029 0 .045-.089.045-.119.045a1.9 1.9 0 0 1-.3-.016h-.208c-.253 0-.179.016-.536.016h-.059c-.044-.016-.044-.03-.044-.045s0-.058.148-.058a.464.464 0 0 0 .253-.043.729.729 0 0 0 .149-.262l1.279-3c.045-.1.045-.116.045-.13 0-.045-.06-.045-.089-.045h-.119c-.045 0-.1 0-.1-.043s.045-.03.074-.03h.208a1.516 1.516 0 0 0 .476-.043h.03c.03 0 .03.015.03.03a1.743 1.743 0 0 1-.148.363 1.053 1.053 0 0 1 .743-.377.745.745 0 0 1 .417.13.618.618 0 0 1 .253.524 1.1 1.1 0 0 1-.03.218 1.97 1.97 0 0 1-.595 1.047 1.662 1.662 0 0 1-.312.247 1.348 1.348 0 0 1-.729.219.435.435 0 0 1-.327-.1.516.516 0 0 1-.149-.218zm.788-1.848a.678.678 0 0 0-.059.2.287.287 0 0 0 .045.16.383.383 0 0 0 .327.189.942.942 0 0 0 .268-.057 1.549 1.549 0 0 0 .58-.671 2.451 2.451 0 0 0 .357-1.1.316.316 0 0 0-.119-.277.413.413 0 0 0-.163-.043.863.863 0 0 0-.595.334 4.288 4.288 0 0 0-.461.815z" data-name="Path 11"/>
      <path d="M30.572 70.659a.43.43 0 0 0 .431.494.81.81 0 0 0 .387-.115.925.925 0 0 0 .268-.233c.03-.028.06-.072.089-.072s.03 0 .03.029c0 .087-.178.247-.252.305a.993.993 0 0 1-.61.2.753.753 0 0 1-.833-.727 1.577 1.577 0 0 1 .669-1.164 1.716 1.716 0 0 1 1.086-.495c.327 0 .461.174.461.363a.572.572 0 0 1-.238.437 1.563 1.563 0 0 1-.282.146 2.118 2.118 0 0 1-.387.089c-.074 0-.148.014-.222.014a2.531 2.531 0 0 1-.387-.029 1.439 1.439 0 0 0-.21.758zm1.16-1.148a.469.469 0 0 0 .163-.35.154.154 0 0 0-.163-.175.629.629 0 0 0-.342.132 2.459 2.459 0 0 0-.565.712 1.051 1.051 0 0 0 .907-.319z" data-name="Path 12"/>
      <path d="M33.918 71.139c-.03.074-.03.074-.075.074h-.119a.189.189 0 0 0-.089-.015c-.029 0-.074.015-.119.015h-.03c-.03 0-.045 0-.045-.015s.015-.043.03-.086.029-.06.044-.088l.7-1.657a.5.5 0 0 0 .059-.233c0-.016 0-.059-.014-.073a.111.111 0 0 0-.089-.043c-.149 0-.3.16-.372.262-.089.131-.134.174-.134.2-.015.015-.03.057-.059.057a.047.047 0 0 1-.045-.042.193.193 0 0 1 .045-.1 2.128 2.128 0 0 1 .223-.277.612.612 0 0 1 .268-.189.475.475 0 0 1 .253-.058.36.36 0 0 1 .253.072.3.3 0 0 1 .089.248.736.736 0 0 1-.03.188l-.223.524h.893l.357-.844c.03-.073.03-.117.089-.117h.044a.154.154 0 0 0 .074.016h.089a.4.4 0 0 0 .164-.03c.03 0 .03.015.03.03a.043.043 0 0 1-.015.028l-.729 1.731a.8.8 0 0 0-.089.276c0 .1.06.131.149.131a.675.675 0 0 0 .431-.261c.045-.044.06-.073.089-.073a.032.032 0 0 1 .03.029c0 .087-.194.232-.238.277a.925.925 0 0 1-.476.146c-.223 0-.386-.1-.386-.336a.436.436 0 0 1 .06-.218l.282-.653h-.892z" data-name="Path 13"/>
      <path d="M38.275 69.975a1.474 1.474 0 0 1 .52-.086.854.854 0 0 1 .476.116.475.475 0 0 1 .179.392.756.756 0 0 1-.3.582 1.626 1.626 0 0 1-.922.3.9.9 0 0 1-.4-.1.61.61 0 0 1-.268-.509.866.866 0 0 1 .089-.349l.506-.959a.936.936 0 0 0 .06-.219c0-.03 0-.073-.015-.087a.133.133 0 0 0-.09-.043.393.393 0 0 0-.238.117 1.328 1.328 0 0 0-.133.145 1.833 1.833 0 0 0-.149.2c-.015.015-.03.057-.06.057a.014.014 0 0 1-.015-.014.031.031 0 0 1-.03-.028c0-.029.03-.059.044-.1a2.15 2.15 0 0 1 .223-.277.845.845 0 0 1 .269-.189.505.505 0 0 1 .252-.058.379.379 0 0 1 .267.072.3.3 0 0 1 .1.248.432.432 0 0 1-.045.188zm-.238.48a.925.925 0 0 0-.075.363.436.436 0 0 0 .075.277.37.37 0 0 0 .268.086.637.637 0 0 0 .49-.261.887.887 0 0 0 .208-.553.33.33 0 0 0-.089-.262.454.454 0 0 0-.327-.1.858.858 0 0 0-.357.073zm2.126.2a.825.825 0 0 0-.119.349.139.139 0 0 0 .148.146.662.662 0 0 0 .446-.248c.03-.028.045-.059.075-.059a.032.032 0 0 1 .029.03c0 .014 0 .072-.148.189a.782.782 0 0 1-.505.189c-.223 0-.431-.118-.431-.35a.969.969 0 0 1 .134-.421l.625-1.368c.045-.1.045-.115.06-.145s.03-.044.059-.044c.045 0 .059.015.119.015h.089a.544.544 0 0 0 .179-.029.031.031 0 0 1 .03.029 1.342 1.342 0 0 1-.075.161z" data-name="Path 14"/>
      <path d="M44.357 70.471c-.06.145-.1.247-.134.335a.694.694 0 0 0-.044.2.167.167 0 0 0 .03.1.144.144 0 0 0 .1.029.494.494 0 0 0 .3-.116 1.192 1.192 0 0 0 .193-.188.065.065 0 0 1 .044-.043.047.047 0 0 1 .044.043c0 .043-.1.145-.134.174a2.234 2.234 0 0 0-.194.146.9.9 0 0 1-.386.1.542.542 0 0 1-.3-.071.3.3 0 0 1-.134-.234.617.617 0 0 1 .044-.174l.566-1.222.1-.218h-.015l-1.814 1.773c-.075.088-.1.1-.134.1a1.2 1.2 0 0 0-.149-.014c-.074 0-.074.014-.119.014s-.045-.014-.045-.042 0-.03.045-.1a.923.923 0 0 1 .059-.1l.7-1.6a.606.606 0 0 0 .075-.233.155.155 0 0 0-.03-.072.1.1 0 0 0-.075-.044c-.163 0-.3.16-.386.262-.089.131-.134.175-.134.2-.015.013-.03.058-.06.058a.048.048 0 0 1-.045-.044.192.192 0 0 1 .045-.1 2.009 2.009 0 0 1 .223-.276.589.589 0 0 1 .267-.189.463.463 0 0 1 .253-.059.391.391 0 0 1 .252.074.319.319 0 0 1 .1.247.387.387 0 0 1-.045.188l-.55 1.236-.119.22 1.814-1.774c.089-.087.1-.116.12-.116.044 0 .015.014.074.014h.045a.385.385 0 0 0 .134-.014c.03 0 .044-.015.06-.015s.03.015.014.044zm-.119-2.328a.166.166 0 0 1-.179.189h-.045c-.03-.015-.045-.03-.059-.03-.045 0-.045.03-.045.045 0 .043.06.1.194.1a.719.719 0 0 0 .625-.334 1.127 1.127 0 0 0 .119-.307c0-.028.015-.1.074-.1.014 0 .044 0 .044.044a1.113 1.113 0 0 1-.163.451.889.889 0 0 1-.7.349.361.361 0 0 1-.267-.1.3.3 0 0 1-.1-.247.316.316 0 0 1 .074-.2.275.275 0 0 1 .208-.072.2.2 0 0 1 .22.212z" data-name="Path 15"/>
      <path d="M49.278 71.052c-.06.131-.074.116-.118.131l-.253.014c-.089.014-.06.028-.1.028-.059 0-.03-.057-.03-.072l.773-1.79a.569.569 0 0 0 .06-.232c0-.015 0-.058-.015-.073a.13.13 0 0 0-.09-.043c-.163 0-.3.16-.371.263a1.466 1.466 0 0 0-.149.2c-.014.014-.03.059-.059.059s-.03-.015-.03-.044a.37.37 0 0 1 .03-.1 2.078 2.078 0 0 1 .223-.276.824.824 0 0 1 .267-.19.629.629 0 0 1 .282-.057.329.329 0 0 1 .238.072.3.3 0 0 1 .1.247.57.57 0 0 1-.044.19l-.224.552h.164a.622.622 0 0 0 .357-.131 1.482 1.482 0 0 0 .357-.421c.149-.219.223-.321.283-.393a.521.521 0 0 1 .386-.16.28.28 0 0 1 .313.291.212.212 0 0 1-.223.233.15.15 0 0 1-.163-.146.222.222 0 0 1 .03-.116c.015-.014.015-.029.015-.059s-.015-.072-.089-.072c-.119 0-.223.116-.3.218a1.146 1.146 0 0 1-.119.175c-.044.073-.1.145-.149.219-.074.086-.134.173-.223.261a.606.606 0 0 1-.268.146v.014a.6.6 0 0 1 .357.1.357.357 0 0 1 .178.334c0 .073-.03.146-.045.276a1.134 1.134 0 0 0-.044.291c0 .059.014.146.1.146.119 0 .253-.13.327-.2a1.526 1.526 0 0 0 .208-.378c0-.015.015-.073.06-.073a.047.047 0 0 1 .045.043 1.26 1.26 0 0 1-.283.51.8.8 0 0 1-.491.217.386.386 0 0 1-.417-.407 2.057 2.057 0 0 1 .045-.291 1.575 1.575 0 0 0 .03-.276.222.222 0 0 0-.074-.189.5.5 0 0 0-.282-.073h-.133z" data-name="Path 16"/>
      <path d="M55.108 69.758a1.7 1.7 0 0 1-1.546 1.528.768.768 0 0 1-.789-.815 1.583 1.583 0 0 1 .67-1.207 1.6 1.6 0 0 1 .907-.364.767.767 0 0 1 .758.858zm-1.591-.116a2.81 2.81 0 0 0-.312 1.134c0 .365.209.421.357.421a.914.914 0 0 0 .774-.581 2.947 2.947 0 0 0 .356-1.207.373.373 0 0 0-.387-.423c-.402 0-.654.408-.788.656z" data-name="Path 17"/>
      <path d="M57.68 70.994a.752.752 0 0 1-.267.218.616.616 0 0 1-.268.073.569.569 0 0 1-.446-.262 1.06 1.06 0 0 1-.163-.567 1.618 1.618 0 0 1 .252-.829 1.831 1.831 0 0 1 .564-.553 1.236 1.236 0 0 1 .581-.189.415.415 0 0 1 .4.277l.074-.219a4.477 4.477 0 0 1 .328-.756 1.863 1.863 0 0 1 .3-.436 1.052 1.052 0 0 1 .758-.364.742.742 0 0 1 .224.059.342.342 0 0 1 .208.306.187.187 0 0 1-.06.146.226.226 0 0 1-.133.058.163.163 0 0 1-.164-.16.085.085 0 0 1 .03-.073.226.226 0 0 0 .044-.117c0-.028-.015-.086-.044-.1a.455.455 0 0 0-.164-.03.507.507 0 0 0-.417.263 2.662 2.662 0 0 0-.208.451c-.06.131-.1.262-.149.392s-.089.262-.133.378l-.089.218a.916.916 0 0 1 .267-.218.514.514 0 0 1 .253-.072.6.6 0 0 1 .476.248.941.941 0 0 1 .164.551 1.717 1.717 0 0 1-.268.874 1.817 1.817 0 0 1-.58.539 1.092 1.092 0 0 1-.55.189.409.409 0 0 1-.417-.277l-.267.626a1.638 1.638 0 0 1-.491.669 1.036 1.036 0 0 1-.7.32.618.618 0 0 1-.282-.073.261.261 0 0 1-.134-.232.215.215 0 0 1 .223-.218c.075 0 .164.043.164.131a.125.125 0 0 1-.044.087.208.208 0 0 0-.03.1c0 .045.03.116.149.116a.589.589 0 0 0 .417-.217 2.12 2.12 0 0 0 .313-.524l.208-.567zm-.267.116a1.014 1.014 0 0 0 .267-.292 4.191 4.191 0 0 0 .372-.872 2.139 2.139 0 0 0 .193-.626.308.308 0 0 0-.327-.334.5.5 0 0 0-.356.161 2.19 2.19 0 0 0-.447.741 2.957 2.957 0 0 0-.194.9.982.982 0 0 0 .045.291.222.222 0 0 0 .193.116.487.487 0 0 0 .254-.085zm1.59-2.052a2.031 2.031 0 0 0-.238.247 4.223 4.223 0 0 0-.4.917 2.9 2.9 0 0 0-.193.668.311.311 0 0 0 .327.305.553.553 0 0 0 .342-.174 2.3 2.3 0 0 0 .476-.757 2.516 2.516 0 0 0 .193-.9.719.719 0 0 0-.045-.277.222.222 0 0 0-.222-.1.414.414 0 0 0-.236.071z" data-name="Path 18"/>
      <path d="M61.755 70.659c0 .117.015.494.417.494a.872.872 0 0 0 .4-.115.914.914 0 0 0 .269-.233c.015-.028.06-.072.089-.072s.029 0 .029.029c0 .087-.179.247-.252.305a1.048 1.048 0 0 1-.625.2.741.741 0 0 1-.818-.727 1.579 1.579 0 0 1 .67-1.164 1.683 1.683 0 0 1 1.085-.495c.327 0 .446.174.446.363a.525.525 0 0 1-.238.437 1.169 1.169 0 0 1-.281.146 1.89 1.89 0 0 1-.388.089c-.074 0-.149.014-.223.014a2.708 2.708 0 0 1-.387-.029 1.581 1.581 0 0 0-.193.758zm1.16-1.148a.538.538 0 0 0 .163-.35.153.153 0 0 0-.163-.175.7.7 0 0 0-.357.132 2.454 2.454 0 0 0-.564.712 1.066 1.066 0 0 0 .921-.319z" data-name="Path 19"/>
    </g>
  </g>
</svg>
