<svg xmlns="http://www.w3.org/2000/svg" width="40" height="40">
  <g data-name="Group 16">
    <g fill="none" stroke="#707070" data-name="Ellipse 1">
      <circle cx="20" cy="20" r="20" stroke="none"/>
      <circle cx="20" cy="20" r="19.5"/>
    </g>
    <path fill="#fff" fill-rule="evenodd" d="M26.516 21.905a26.12 26.12 0 0 1 1.879 1.89 5.493 5.493 0 0 1 .674.971c.259.5.024 1.054-.425 1.083h-2.8a2.158 2.158 0 0 1-1.78-.723c-.387-.394-.746-.814-1.118-1.221a2.647 2.647 0 0 0-.5-.447.584.584 0 0 0-.931.226 2.937 2.937 0 0 0-.294 1.3c-.03.658-.229.831-.89.862a7.149 7.149 0 0 1-4-.86 8.838 8.838 0 0 1-2.692-2.52 33.93 33.93 0 0 1-3.539-6.312c-.224-.5-.06-.765.489-.774a73.45 73.45 0 0 1 2.737 0 .8.8 0 0 1 .756.562 16.967 16.967 0 0 0 1.855 3.438 2.932 2.932 0 0 0 .7.77.426.426 0 0 0 .724-.208 2.385 2.385 0 0 0 .161-.721 10.737 10.737 0 0 0-.045-2.527 1.053 1.053 0 0 0-.9-.964c-.267-.051-.227-.15-.1-.3a1 1 0 0 1 .857-.427H20.5c.5.1.608.322.676.822v3.51c-.005.194.1.769.446.9.279.091.463-.132.631-.309a10.883 10.883 0 0 0 1.779-2.734c.214-.432.4-.881.576-1.329a.677.677 0 0 1 .714-.489h3.041a1.6 1.6 0 0 1 .269.016c.512.087.653.308.495.808a7.592 7.592 0 0 1-1.209 2.1c-.507.7-1.049 1.379-1.552 2.085-.462.645-.425.969.149 1.529zm0 0"/>
  </g>
</svg>
